<svg xmlns="http://www.w3.org/2000/svg" viewBox="0 0 500 500"><g id="freepik--Floor--inject-182"><g><path d="M491.62309,474.0677c0,3.3867-108.1783,6.1322-241.62309,6.1322s-241.62307-2.7455-241.62307-6.1322,108.17827-6.1323,241.62307-6.1323,241.62309,2.7455,241.62309,6.1323Z" style="fill:#f5f5f5;"></path><path d="M8.37693,408.0853s1.14959,.051,3.29557,.1525c22.7842,1.0775,157.886,7.8375,221.95289,19.4786,70.1012,12.7375,100.6275,27.0036,100.6275,27.0036,0,0,53.3525-30.7786,137.5767-34.4814l19.7935,.4888v53.3402H8.37693" style="fill:#698888;"></path><path d="M62.6324,402.621c2.8498-4.6666,5.7334-9.4098,7.1996-14.6775,1.4662-5.2678,1.3559-11.2224-1.5431-15.8587-7.6057,8.2025-11.6953,19.5622-11.0631,30.7304-5.4809-11.6744-13.0588-22.3605-22.263-31.3947-1.0203,6.7489,.5907,13.7668,3.9451,19.7111,3.3543,5.9443,8.379,10.8501,14.0878,14.5912-8.9302-3.1863-18.4012-4.8506-27.8827-4.9,10.226,8.2567,21.9936,12.4085,35.1141,11.6363l2.1422-1.0007c9.4737-4.1628,15.1841-11.7983,18.9113-18.2199,1.5698-2.7046,3.2892-6.5751,2.4775-7.2183-7.5916,4.7818-14.6843,10.3553-21.1257,16.6008Z" style="fill:#698888;"></path><path d="M387.46859,433.4159c2.8498-4.6667,5.73341-9.4099,7.1997-14.6776,1.4662-5.2677,1.3558-11.2224-1.5432-15.8587-7.6056,8.2025-11.6952,19.5622-11.06309,30.7305-5.48081-11.6745-13.05871-22.3606-22.26291-31.3947-1.0204,6.7488,.5907,13.7667,3.9451,19.711,3.3543,5.9443,8.379,10.8501,14.0877,14.5912-8.9301-3.1862-18.4011-4.8506-27.8826-4.9,10.226,8.2567,21.9935,12.4085,35.1141,11.6363l2.1421-1.0007c9.4737-4.1628,15.1842-11.7983,18.9114-18.2199,1.5697-2.7046,3.2892-6.5751,2.4775-7.2183-7.5917,4.7818-14.6843,10.3553-21.1258,16.6009Z" style="fill:#698888;"></path><path d="M334.25289,454.72l38.2615,19.9972,119.1087-.6496v-53.3402s-77.1442-7.2385-157.3702,33.9926Z" style="isolation:isolate; opacity:.3;"></path><path d="M132.8478,414.2445c3.0584-2.1397,6.1588-4.318,8.5162-7.212,2.3573-2.8939,3.9164-6.6486,3.3708-10.3411-6.9998,3.051-12.6636,9.0381-15.3218,16.1963-.2362-8.8006-2.0542-17.5564-5.3411-25.7235-2.4835,3.9422-3.3946,8.7722-2.9218,13.4073,.4728,4.6352,2.2743,9.0774,4.8221,12.9782-4.7144-4.4345-10.1832-8.065-16.1001-10.6883,4.1386,7.9603,10.3637,13.7745,18.7814,16.8789l1.6135-.0402c7.0636-.0135,12.723-3.228,16.8101-6.2255,1.7213-1.2624,3.855-3.2132,3.5232-3.8374-6.0558,.9152-12.0159,2.4621-17.7525,4.6073Z" style="fill:#698888;"></path><path d="M317.29909,467.5846c-4.5615-2.521-10.5185,4.3476-10.5185,4.3476,0,0,6.6386-8.9658,3.4311-10.5103-3.2076-1.5445-9.284,6.1627-9.284,6.1627,0,0,5.2848-11.2244,1.6242-11.9933-1.7754-.373-4.7186,2.7472-7.2804,6.0587-.2696-4.2372-1.2943-8.6847-4.3732-9.0971-3.6172-.4845-5.2084,5.4985-5.903,10.3355-2.7464-3.7202-6.2194-7.7165-8.2161-7.2971-3.6606,.7689,1.6245,11.9933,1.6245,11.9933,0,0-6.07669-7.7072-9.2843-6.1627-3.2075,1.5445,3.4314,10.5103,3.4314,10.5103,0,0-5.9573-6.8686-10.5185-4.3476-4.5612,2.5211-5.2014,6.4059-5.2014,6.4059h65.6696s-.6404-3.8848-5.2014-6.4059Z" style="isolation:isolate; opacity:.3;"></path><path d="M121.1945,467.5846c-4.5615-2.521-10.5185,4.3476-10.5185,4.3476,0,0,6.6386-8.9658,3.4311-10.5103-3.2076-1.5445-9.284,6.1627-9.284,6.1627,0,0,5.2848-11.2244,1.6242-11.9933-1.7754-.373-4.7186,2.7472-7.2804,6.0587-.2696-4.2372-1.2943-8.6847-4.3732-9.0971-3.6172-.4845-5.2084,5.4985-5.903,10.3355-2.7464-3.7202-6.2193-7.7165-8.2161-7.2971-3.6606,.7689,1.6245,11.9933,1.6245,11.9933,0,0-6.0767-7.7072-9.2843-6.1627-3.2075,1.5445,3.4314,10.5103,3.4314,10.5103,0,0-5.9573-6.8686-10.5185-4.3476-4.5612,2.5211-5.2014,6.4059-5.2014,6.4059H126.3959s-.6404-3.8848-5.2014-6.4059Z" style="isolation:isolate; opacity:.3;"></path><path d="M285.19539,435.6204c-3.8858-3.4731-11.2223,1.8972-11.2223,1.8972,0,0,8.4677-7.2631,5.6846-9.4828-2.7834-2.2198-10.4229,3.9414-10.4229,3.9414,0,0,7.6507-9.7664,4.2531-11.3308-1.64789-.7589-5.2118,1.6279-8.4464,4.2861,.6804-4.1909,.6714-8.7549-2.23849-9.8424-3.41871-1.2774-6.30171,4.2013-8.05561,8.7623-1.8493-4.2381-4.3456-8.9073-6.3856-8.9429-3.7399-.0652-1.0859,12.054-1.0859,12.054,0,0-4.2087-8.8664-7.6796-8.0746-3.4708,.7917,1.0058,11.0104,1.0058,11.0104,0,0-4.2789-8.0224-9.2869-6.58-5.0079,1.4426-6.4968,5.0874-6.4968,5.0874l23.989,5.4773,16.0438,3.6631,23.9892,5.4773s.2404-3.9299-3.645-7.403Z" style="fill:#698888;"></path><path d="M473.63989,416.3225c-4.7597-2.1229-10.1094,5.2287-10.1094,5.2287,0,0,5.8498-9.4992,2.5224-10.7645-3.3277-1.2654-8.7247,6.9318-8.7247,6.9318,0,0,4.3084-11.6341,.5955-12.088-1.80069-.2203-4.4671,3.1395-6.7372,6.6574-.6299-4.1987-2.0301-8.5427-5.133-8.6911-3.6454-.1742-4.72049,5.9227-5.0002,10.8013-3.0535-3.4724-6.8546-7.1581-8.8084-6.5699-3.5817,1.0783,2.6413,11.8111,2.6413,11.8111,0,0-6.7118-7.1609-9.7759-5.3485-3.0642,1.8124,4.3151,10.1794,4.3151,10.1794,0,0-6.5213-6.3356-10.8509-3.4348s-4.6362,6.8261-4.6362,6.8261l24.51671-2.0983,16.39669-1.4034,24.517-2.0983s-.9694-3.8161-5.7288-5.939Z" style="fill:#698888;"></path><path d="M473.63989,416.3225c-4.7597-2.1229-10.1094,5.2287-10.1094,5.2287,0,0,5.8498-9.4992,2.5224-10.7645-3.3277-1.2654-8.7247,6.9318-8.7247,6.9318,0,0,4.3084-11.6341,.5955-12.088-1.80069-.2203-4.4671,3.1395-6.7372,6.6574-.6299-4.1987-2.0301-8.5427-5.133-8.6911-3.6454-.1742-4.72049,5.9227-5.0002,10.8013-3.0535-3.4724-6.8546-7.1581-8.8084-6.5699-3.5817,1.0783,2.6413,11.8111,2.6413,11.8111,0,0-6.7118-7.1609-9.7759-5.3485-3.0642,1.8124,4.3151,10.1794,4.3151,10.1794,0,0-6.5213-6.3356-10.8509-3.4348s-4.6362,6.8261-4.6362,6.8261l24.51671-2.0983,16.39669-1.4034,24.517-2.0983s-.9694-3.8161-5.7288-5.939Z" style="isolation:isolate; opacity:.3;"></path></g></g></svg>
